<svg xmlns="http://www.w3.org/2000/svg" xmlns:xlink="http://www.w3.org/1999/xlink" width="500" zoomAndPan="magnify" viewBox="0 0 375 374.999991" height="500" preserveAspectRatio="xMidYMid meet" version="1.0"><defs><g/><clipPath id="id1"><path d="M 64.378906 171.234375 L 310 171.234375 L 310 249.234375 L 64.378906 249.234375 Z M 64.378906 171.234375 " clip-rule="nonzero"/></clipPath><clipPath id="id2"><path d="M 279.285156 183.421875 C 280.695312 183.421875 281.921875 184.640625 281.921875 186.046875 C 281.921875 187.453125 280.695312 188.671875 279.285156 188.671875 C 277.875 188.671875 276.652344 187.453125 276.652344 186.046875 C 276.652344 184.640625 277.875 183.421875 279.285156 183.421875 Z M 295.089844 206.859375 C 295.089844 210.984375 298.382812 214.265625 302.519531 214.265625 C 306.660156 214.265625 309.953125 210.984375 309.953125 206.859375 C 309.953125 202.734375 306.660156 199.453125 302.519531 199.453125 C 298.382812 199.453125 295.089844 202.734375 295.089844 206.859375 Z M 79.671875 213.703125 C 79.671875 209.578125 76.378906 206.296875 72.242188 206.296875 C 68.101562 206.296875 64.808594 209.671875 64.808594 213.703125 C 64.808594 217.828125 68.101562 221.109375 72.242188 221.109375 C 76.378906 221.109375 79.671875 217.828125 79.671875 213.703125 Z M 131.410156 174.515625 C 131.410156 176.296875 132.914062 177.796875 134.703125 177.796875 L 114.289062 177.796875 C 109.492188 177.796875 105.539062 181.734375 105.539062 186.515625 C 105.539062 191.296875 109.492188 195.234375 114.289062 195.234375 L 92.371094 195.234375 C 90.960938 195.234375 89.738281 196.453125 89.738281 197.859375 C 89.738281 199.265625 90.960938 200.484375 92.371094 200.484375 L 120.59375 200.484375 C 118.335938 200.484375 116.453125 202.359375 116.453125 204.609375 C 116.453125 206.859375 118.335938 208.734375 120.59375 208.734375 L 90.394531 208.734375 C 86.914062 208.734375 84.09375 211.546875 84.09375 215.015625 C 84.09375 218.484375 86.914062 221.296875 90.394531 221.296875 L 112.503906 221.296875 C 109.585938 221.296875 107.234375 223.640625 107.234375 226.546875 C 107.234375 229.453125 109.585938 231.796875 112.503906 231.796875 L 145.992188 231.796875 C 144.203125 231.796875 142.699219 233.296875 142.699219 235.078125 C 142.699219 236.859375 144.203125 238.359375 145.992188 238.359375 L 121.910156 238.359375 C 118.898438 238.359375 116.453125 240.796875 116.453125 243.796875 C 116.453125 246.796875 118.898438 249.234375 121.910156 249.234375 L 239.964844 249.234375 C 241.753906 249.234375 243.257812 247.734375 243.257812 245.953125 C 243.257812 244.171875 241.753906 242.671875 239.964844 242.671875 L 260.472656 242.671875 C 265.269531 242.671875 269.21875 238.734375 269.21875 233.953125 C 269.21875 229.171875 265.269531 225.234375 260.472656 225.234375 L 282.390625 225.234375 C 283.800781 225.234375 285.023438 224.015625 285.023438 222.609375 C 285.023438 221.203125 283.800781 219.984375 282.390625 219.984375 L 254.167969 219.984375 C 256.425781 219.984375 258.308594 218.109375 258.308594 215.859375 C 258.308594 213.609375 256.425781 211.734375 254.167969 211.734375 L 284.367188 211.734375 C 287.847656 211.734375 290.667969 208.921875 290.667969 205.453125 C 290.667969 201.984375 287.847656 199.171875 284.367188 199.171875 L 262.257812 199.171875 C 265.175781 199.171875 267.527344 196.828125 267.527344 193.921875 C 267.527344 191.015625 265.175781 188.671875 262.257812 188.671875 L 228.769531 188.671875 C 230.558594 188.671875 232.0625 187.171875 232.0625 185.390625 C 232.0625 183.609375 230.558594 182.109375 228.769531 182.109375 L 252.851562 182.109375 C 255.863281 182.109375 258.308594 179.671875 258.308594 176.671875 C 258.308594 173.671875 255.863281 171.234375 252.851562 171.234375 L 134.796875 171.234375 C 132.820312 171.234375 131.410156 172.734375 131.410156 174.515625 Z M 98.109375 234.515625 C 98.109375 233.109375 96.886719 231.890625 95.476562 231.890625 C 94.066406 231.890625 92.839844 233.109375 92.839844 234.515625 C 92.839844 235.921875 94.066406 237.140625 95.476562 237.140625 C 96.886719 237.140625 98.109375 235.921875 98.109375 234.515625 Z M 98.109375 234.515625 " clip-rule="nonzero"/></clipPath><linearGradient x1="2582.190304" gradientTransform="matrix(0.000000000000000058, -0.9375, 0.940688, 0.000000000000000057, -409.327986, 2634.391517)" y1="769.910834" x2="2551.029767" gradientUnits="userSpaceOnUse" y2="503.230232" id="id3"><stop stop-opacity="1" stop-color="rgb(8.599854%, 25.498962%, 48.199463%)" offset="0"/><stop stop-opacity="1" stop-color="rgb(8.599854%, 25.498962%, 48.199463%)" offset="0.035963"/><stop stop-opacity="1" stop-color="rgb(8.599854%, 25.498962%, 48.199463%)" offset="0.25"/><stop stop-opacity="1" stop-color="rgb(9.033203%, 25.376892%, 48.257446%)" offset="0.253906"/><stop stop-opacity="1" stop-color="rgb(9.468079%, 25.256348%, 48.31543%)" offset="0.257812"/><stop stop-opacity="1" stop-color="rgb(10.246277%, 25.039673%, 48.419189%)" offset="0.261719"/><stop stop-opacity="1" stop-color="rgb(11.024475%, 24.822998%, 48.522949%)" offset="0.265625"/><stop stop-opacity="1" stop-color="rgb(11.802673%, 24.604797%, 48.626709%)" offset="0.269531"/><stop stop-opacity="1" stop-color="rgb(12.582397%, 24.388123%, 48.730469%)" offset="0.273438"/><stop stop-opacity="1" stop-color="rgb(13.360596%, 24.169922%, 48.834229%)" offset="0.277344"/><stop stop-opacity="1" stop-color="rgb(14.138794%, 23.953247%, 48.937988%)" offset="0.28125"/><stop stop-opacity="1" stop-color="rgb(14.916992%, 23.736572%, 49.041748%)" offset="0.285156"/><stop stop-opacity="1" stop-color="rgb(15.69519%, 23.519897%, 49.147034%)" offset="0.289063"/><stop stop-opacity="1" stop-color="rgb(16.473389%, 23.301697%, 49.250793%)" offset="0.292969"/><stop stop-opacity="1" stop-color="rgb(17.251587%, 23.085022%, 49.354553%)" offset="0.296875"/><stop stop-opacity="1" stop-color="rgb(18.029785%, 22.866821%, 49.458313%)" offset="0.300781"/><stop stop-opacity="1" stop-color="rgb(18.809509%, 22.650146%, 49.562073%)" offset="0.304688"/><stop stop-opacity="1" stop-color="rgb(19.587708%, 22.433472%, 49.665833%)" offset="0.308594"/><stop stop-opacity="1" stop-color="rgb(20.365906%, 22.216797%, 49.769592%)" offset="0.3125"/><stop stop-opacity="1" stop-color="rgb(21.144104%, 21.998596%, 49.873352%)" offset="0.316406"/><stop stop-opacity="1" stop-color="rgb(21.922302%, 21.781921%, 49.977112%)" offset="0.320313"/><stop stop-opacity="1" stop-color="rgb(22.7005%, 21.565247%, 50.080872%)" offset="0.324219"/><stop stop-opacity="1" stop-color="rgb(23.478699%, 21.348572%, 50.186157%)" offset="0.328125"/><stop stop-opacity="1" stop-color="rgb(24.256897%, 21.130371%, 50.289917%)" offset="0.332031"/><stop stop-opacity="1" stop-color="rgb(25.036621%, 20.913696%, 50.393677%)" offset="0.335938"/><stop stop-opacity="1" stop-color="rgb(25.814819%, 20.695496%, 50.497437%)" offset="0.339844"/><stop stop-opacity="1" stop-color="rgb(26.593018%, 20.478821%, 50.601196%)" offset="0.34375"/><stop stop-opacity="1" stop-color="rgb(27.371216%, 20.262146%, 50.704956%)" offset="0.347656"/><stop stop-opacity="1" stop-color="rgb(28.149414%, 20.045471%, 50.808716%)" offset="0.351563"/><stop stop-opacity="1" stop-color="rgb(28.927612%, 19.827271%, 50.912476%)" offset="0.355469"/><stop stop-opacity="1" stop-color="rgb(29.705811%, 19.610596%, 51.016235%)" offset="0.359375"/><stop stop-opacity="1" stop-color="rgb(30.484009%, 19.392395%, 51.119995%)" offset="0.363281"/><stop stop-opacity="1" stop-color="rgb(31.263733%, 19.17572%, 51.223755%)" offset="0.367188"/><stop stop-opacity="1" stop-color="rgb(32.041931%, 18.959045%, 51.327515%)" offset="0.371094"/><stop stop-opacity="1" stop-color="rgb(32.820129%, 18.742371%, 51.4328%)" offset="0.375"/><stop stop-opacity="1" stop-color="rgb(33.598328%, 18.52417%, 51.53656%)" offset="0.378906"/><stop stop-opacity="1" stop-color="rgb(34.376526%, 18.307495%, 51.64032%)" offset="0.382813"/><stop stop-opacity="1" stop-color="rgb(35.154724%, 18.089294%, 51.74408%)" offset="0.386719"/><stop stop-opacity="1" stop-color="rgb(35.932922%, 17.87262%, 51.847839%)" offset="0.390625"/><stop stop-opacity="1" stop-color="rgb(36.711121%, 17.655945%, 51.951599%)" offset="0.394531"/><stop stop-opacity="1" stop-color="rgb(37.490845%, 17.43927%, 52.055359%)" offset="0.398438"/><stop stop-opacity="1" stop-color="rgb(38.269043%, 17.221069%, 52.159119%)" offset="0.402344"/><stop stop-opacity="1" stop-color="rgb(39.047241%, 17.004395%, 52.262878%)" offset="0.40625"/><stop stop-opacity="1" stop-color="rgb(39.825439%, 16.786194%, 52.366638%)" offset="0.410156"/><stop stop-opacity="1" stop-color="rgb(40.603638%, 16.569519%, 52.471924%)" offset="0.414063"/><stop stop-opacity="1" stop-color="rgb(41.381836%, 16.352844%, 52.575684%)" offset="0.417969"/><stop stop-opacity="1" stop-color="rgb(42.160034%, 16.136169%, 52.679443%)" offset="0.421875"/><stop stop-opacity="1" stop-color="rgb(42.938232%, 15.917969%, 52.783203%)" offset="0.425781"/><stop stop-opacity="1" stop-color="rgb(43.717957%, 15.701294%, 52.886963%)" offset="0.429688"/><stop stop-opacity="1" stop-color="rgb(44.496155%, 15.483093%, 52.990723%)" offset="0.433594"/><stop stop-opacity="1" stop-color="rgb(45.274353%, 15.266418%, 53.094482%)" offset="0.4375"/><stop stop-opacity="1" stop-color="rgb(46.052551%, 15.049744%, 53.198242%)" offset="0.441406"/><stop stop-opacity="1" stop-color="rgb(46.83075%, 14.833069%, 53.302002%)" offset="0.445313"/><stop stop-opacity="1" stop-color="rgb(47.608948%, 14.614868%, 53.405762%)" offset="0.449219"/><stop stop-opacity="1" stop-color="rgb(48.387146%, 14.398193%, 53.509521%)" offset="0.453125"/><stop stop-opacity="1" stop-color="rgb(49.165344%, 14.181519%, 53.613281%)" offset="0.457031"/><stop stop-opacity="1" stop-color="rgb(49.945068%, 13.964844%, 53.718567%)" offset="0.460938"/><stop stop-opacity="1" stop-color="rgb(50.723267%, 13.746643%, 53.822327%)" offset="0.464844"/><stop stop-opacity="1" stop-color="rgb(51.501465%, 13.529968%, 53.926086%)" offset="0.46875"/><stop stop-opacity="1" stop-color="rgb(52.279663%, 13.311768%, 54.029846%)" offset="0.472656"/><stop stop-opacity="1" stop-color="rgb(53.057861%, 13.095093%, 54.133606%)" offset="0.476563"/><stop stop-opacity="1" stop-color="rgb(53.83606%, 12.878418%, 54.237366%)" offset="0.480469"/><stop stop-opacity="1" stop-color="rgb(54.614258%, 12.661743%, 54.341125%)" offset="0.484375"/><stop stop-opacity="1" stop-color="rgb(55.392456%, 12.443542%, 54.444885%)" offset="0.488281"/><stop stop-opacity="1" stop-color="rgb(56.17218%, 12.226868%, 54.548645%)" offset="0.492188"/><stop stop-opacity="1" stop-color="rgb(56.950378%, 12.008667%, 54.652405%)" offset="0.496094"/><stop stop-opacity="1" stop-color="rgb(57.728577%, 11.791992%, 54.75769%)" offset="0.5"/><stop stop-opacity="1" stop-color="rgb(58.506775%, 11.575317%, 54.86145%)" offset="0.503906"/><stop stop-opacity="1" stop-color="rgb(59.284973%, 11.358643%, 54.96521%)" offset="0.507813"/><stop stop-opacity="1" stop-color="rgb(60.063171%, 11.140442%, 55.06897%)" offset="0.511719"/><stop stop-opacity="1" stop-color="rgb(60.842896%, 10.923767%, 55.172729%)" offset="0.515625"/><stop stop-opacity="1" stop-color="rgb(61.621094%, 10.705566%, 55.276489%)" offset="0.519531"/><stop stop-opacity="1" stop-color="rgb(62.399292%, 10.488892%, 55.380249%)" offset="0.523438"/><stop stop-opacity="1" stop-color="rgb(63.17749%, 10.272217%, 55.484009%)" offset="0.527344"/><stop stop-opacity="1" stop-color="rgb(63.955688%, 10.055542%, 55.587769%)" offset="0.53125"/><stop stop-opacity="1" stop-color="rgb(64.733887%, 9.837341%, 55.691528%)" offset="0.535156"/><stop stop-opacity="1" stop-color="rgb(65.512085%, 9.620667%, 55.795288%)" offset="0.539063"/><stop stop-opacity="1" stop-color="rgb(66.290283%, 9.402466%, 55.899048%)" offset="0.542969"/><stop stop-opacity="1" stop-color="rgb(67.070007%, 9.185791%, 56.004333%)" offset="0.546875"/><stop stop-opacity="1" stop-color="rgb(67.848206%, 8.969116%, 56.108093%)" offset="0.550781"/><stop stop-opacity="1" stop-color="rgb(68.626404%, 8.752441%, 56.211853%)" offset="0.554688"/><stop stop-opacity="1" stop-color="rgb(69.404602%, 8.534241%, 56.315613%)" offset="0.558594"/><stop stop-opacity="1" stop-color="rgb(70.1828%, 8.317566%, 56.419373%)" offset="0.5625"/><stop stop-opacity="1" stop-color="rgb(70.960999%, 8.100891%, 56.523132%)" offset="0.566406"/><stop stop-opacity="1" stop-color="rgb(71.739197%, 7.884216%, 56.626892%)" offset="0.570312"/><stop stop-opacity="1" stop-color="rgb(72.517395%, 7.666016%, 56.730652%)" offset="0.574219"/><stop stop-opacity="1" stop-color="rgb(73.297119%, 7.449341%, 56.834412%)" offset="0.578125"/><stop stop-opacity="1" stop-color="rgb(74.075317%, 7.23114%, 56.938171%)" offset="0.582031"/><stop stop-opacity="1" stop-color="rgb(74.853516%, 7.014465%, 57.043457%)" offset="0.585938"/><stop stop-opacity="1" stop-color="rgb(75.631714%, 6.797791%, 57.147217%)" offset="0.589844"/><stop stop-opacity="1" stop-color="rgb(76.409912%, 6.581116%, 57.250977%)" offset="0.59375"/><stop stop-opacity="1" stop-color="rgb(77.18811%, 6.362915%, 57.354736%)" offset="0.597656"/><stop stop-opacity="1" stop-color="rgb(77.966309%, 6.14624%, 57.458496%)" offset="0.601562"/><stop stop-opacity="1" stop-color="rgb(78.744507%, 5.92804%, 57.562256%)" offset="0.605469"/><stop stop-opacity="1" stop-color="rgb(79.524231%, 5.711365%, 57.666016%)" offset="0.609375"/><stop stop-opacity="1" stop-color="rgb(80.302429%, 5.49469%, 57.769775%)" offset="0.613281"/><stop stop-opacity="1" stop-color="rgb(81.080627%, 5.278015%, 57.873535%)" offset="0.617188"/><stop stop-opacity="1" stop-color="rgb(81.858826%, 5.059814%, 57.977295%)" offset="0.621094"/><stop stop-opacity="1" stop-color="rgb(82.637024%, 4.84314%, 58.081055%)" offset="0.625"/><stop stop-opacity="1" stop-color="rgb(83.415222%, 4.624939%, 58.184814%)" offset="0.628906"/><stop stop-opacity="1" stop-color="rgb(84.19342%, 4.408264%, 58.2901%)" offset="0.632812"/><stop stop-opacity="1" stop-color="rgb(84.971619%, 4.191589%, 58.39386%)" offset="0.636719"/><stop stop-opacity="1" stop-color="rgb(85.751343%, 3.974915%, 58.49762%)" offset="0.640625"/><stop stop-opacity="1" stop-color="rgb(86.529541%, 3.756714%, 58.601379%)" offset="0.644531"/><stop stop-opacity="1" stop-color="rgb(87.307739%, 3.540039%, 58.705139%)" offset="0.648438"/><stop stop-opacity="1" stop-color="rgb(88.085938%, 3.321838%, 58.808899%)" offset="0.652344"/><stop stop-opacity="1" stop-color="rgb(88.864136%, 3.105164%, 58.912659%)" offset="0.65625"/><stop stop-opacity="1" stop-color="rgb(89.642334%, 2.888489%, 59.016418%)" offset="0.660156"/><stop stop-opacity="1" stop-color="rgb(90.420532%, 2.671814%, 59.120178%)" offset="0.664063"/><stop stop-opacity="1" stop-color="rgb(91.19873%, 2.453613%, 59.223938%)" offset="0.667969"/><stop stop-opacity="1" stop-color="rgb(91.978455%, 2.236938%, 59.329224%)" offset="0.671875"/><stop stop-opacity="1" stop-color="rgb(92.756653%, 2.018738%, 59.432983%)" offset="0.675781"/><stop stop-opacity="1" stop-color="rgb(93.534851%, 1.802063%, 59.536743%)" offset="0.679688"/><stop stop-opacity="1" stop-color="rgb(94.313049%, 1.585388%, 59.640503%)" offset="0.683594"/><stop stop-opacity="1" stop-color="rgb(95.091248%, 1.368713%, 59.744263%)" offset="0.6875"/><stop stop-opacity="1" stop-color="rgb(95.869446%, 1.150513%, 59.848022%)" offset="0.691406"/><stop stop-opacity="1" stop-color="rgb(96.647644%, 0.933838%, 59.951782%)" offset="0.695313"/><stop stop-opacity="1" stop-color="rgb(97.425842%, 0.717163%, 60.055542%)" offset="0.699219"/><stop stop-opacity="1" stop-color="rgb(98.205566%, 0.500488%, 60.159302%)" offset="0.703125"/><stop stop-opacity="1" stop-color="rgb(98.983765%, 0.282288%, 60.263062%)" offset="0.707031"/><stop stop-opacity="1" stop-color="rgb(99.761963%, 0.0656128%, 60.366821%)" offset="0.710938"/><stop stop-opacity="1" stop-color="rgb(99.880981%, 0.0320435%, 60.38208%)" offset="0.71875"/><stop stop-opacity="1" stop-color="rgb(100%, 0%, 60.398865%)" offset="0.75"/><stop stop-opacity="1" stop-color="rgb(100%, 0%, 60.398865%)" offset="0.964037"/><stop stop-opacity="1" stop-color="rgb(100%, 0%, 60.398865%)" offset="1"/></linearGradient></defs><g clip-path="url(#id1)"><g clip-path="url(#id2)"><path fill="url(#id3)" d="M 64.808594 249.234375 L 309.953125 249.234375 L 309.953125 171.234375 L 64.808594 171.234375 Z M 64.808594 249.234375 " fill-rule="nonzero"/></g></g><g fill="#ffffff" fill-opacity="1"><g transform="translate(120.596984, 223.383866)"><g><path d="M 11.367188 -6.261719 L 11.367188 -25.347656 L 8.757812 -25.347656 L 8.757812 -6.261719 C 8.757812 -4.660156 8.125 -3.542969 6.933594 -2.871094 C 5.925781 -2.273438 4.695312 -2.085938 3.242188 -2.273438 C 1.902344 -2.421875 0.855469 -2.796875 0.1875 -3.390625 L 0.1875 -0.523438 C 0.410156 -0.296875 0.855469 -0.113281 1.527344 0.0742188 C 2.199219 0.261719 2.945312 0.371094 3.765625 0.371094 C 5.777344 0.449219 7.453125 0.0390625 8.796875 -0.894531 C 10.511719 -2.011719 11.367188 -3.800781 11.367188 -6.261719 Z M 11.367188 -6.261719 "/></g></g></g><g fill="#ffffff" fill-opacity="1"><g transform="translate(134.198904, 223.383866)"><g><path d="M 21.136719 -8.386719 L 21.136719 -25.347656 L 18.527344 -25.347656 L 18.527344 -8.015625 C 18.527344 -6.96875 18.339844 -6.113281 17.964844 -5.40625 C 16.886719 -3.316406 14.796875 -2.273438 11.703125 -2.273438 C 9.691406 -2.273438 8.089844 -2.722656 6.894531 -3.617188 C 5.515625 -4.621094 4.847656 -6.074219 4.847656 -8.015625 L 4.847656 -25.347656 L 2.238281 -25.347656 L 2.238281 -8.386719 C 2.238281 -5.628906 3.132812 -3.464844 4.921875 -1.902344 C 6.597656 -0.410156 8.871094 0.335938 11.703125 0.335938 C 14.5 0.335938 16.738281 -0.410156 18.449219 -1.902344 C 20.242188 -3.464844 21.136719 -5.628906 21.136719 -8.386719 Z M 21.136719 -8.386719 "/></g></g></g><g fill="#ffffff" fill-opacity="1"><g transform="translate(157.564397, 223.383866)"><g><path d="M 27.808594 -11.851562 L 14.613281 -11.851562 L 14.613281 -9.578125 L 24.898438 -9.578125 C 24.117188 -7.378906 22.8125 -5.589844 20.949219 -4.285156 C 19.085938 -2.945312 16.996094 -2.3125 14.722656 -2.3125 C 11.816406 -2.3125 9.355469 -3.316406 7.304688 -5.367188 C 5.292969 -7.417969 4.285156 -9.914062 4.285156 -12.785156 C 4.285156 -15.65625 5.292969 -18.117188 7.34375 -20.164062 C 9.355469 -22.179688 11.816406 -23.222656 14.722656 -23.222656 C 16.886719 -23.222656 18.859375 -22.589844 20.613281 -21.359375 C 22.402344 -20.128906 23.667969 -18.527344 24.488281 -16.476562 L 27.246094 -16.476562 C 26.390625 -19.269531 24.789062 -21.507812 22.476562 -23.222656 C 20.164062 -24.9375 17.480469 -25.832031 14.460938 -25.832031 C 12.824219 -25.832031 11.21875 -25.457031 9.652344 -24.789062 C 8.050781 -24.117188 6.671875 -23.183594 5.480469 -21.992188 C 4.285156 -20.800781 3.355469 -19.421875 2.683594 -17.855469 C 2.011719 -16.25 1.675781 -14.539062 1.675781 -12.75 C 1.675781 -10.957031 2.011719 -9.246094 2.683594 -7.679688 C 3.355469 -6.074219 4.285156 -4.695312 5.480469 -3.503906 C 6.671875 -2.3125 8.050781 -1.378906 9.652344 -0.707031 C 11.21875 -0.0390625 12.933594 0.296875 14.722656 0.296875 C 17.78125 0.296875 20.539062 -0.671875 23 -2.648438 C 25.457031 -4.660156 26.988281 -7.195312 27.546875 -10.289062 Z M 27.808594 -11.851562 "/></g></g></g><g fill="#ffffff" fill-opacity="1"><g transform="translate(187.041434, 223.383866)"><g><path d="M 17.855469 0 L 17.855469 -2.421875 L 5.40625 -2.421875 L 5.40625 -11.445312 L 17.480469 -11.445312 L 17.480469 -13.902344 L 5.40625 -13.902344 L 5.40625 -22.925781 L 17.855469 -22.925781 L 17.855469 -25.347656 L 2.796875 -25.347656 L 2.796875 0 Z M 17.855469 0 "/></g></g></g><g fill="#ffffff" fill-opacity="1"><g transform="translate(207.68654, 223.383866)"><g><path d="M 5.40625 -18.675781 L 19.644531 1.566406 L 19.644531 -25.347656 L 17.035156 -25.347656 L 17.035156 -6.710938 L 2.796875 -26.949219 L 2.796875 0 L 5.40625 0 Z M 5.40625 -18.675781 "/></g></g></g><g fill="#ffffff" fill-opacity="1"><g transform="translate(230.120392, 223.383866)"><g><path d="M 22.476562 -12.671875 C 22.476562 -14.5 22.105469 -16.175781 21.433594 -17.742188 C 20.761719 -19.308594 19.832031 -20.648438 18.675781 -21.769531 C 17.480469 -22.886719 16.101562 -23.746094 14.539062 -24.378906 C 12.933594 -25.011719 11.21875 -25.347656 9.429688 -25.347656 L 2.796875 -25.347656 L 2.796875 0 L 9.429688 0 C 11.21875 0 12.933594 -0.296875 14.539062 -0.933594 C 16.101562 -1.566406 17.480469 -2.460938 18.675781 -3.578125 C 19.832031 -4.695312 20.761719 -6 21.433594 -7.566406 C 22.105469 -9.132812 22.476562 -10.808594 22.476562 -12.671875 Z M 19.941406 -12.671875 C 19.941406 -9.765625 18.898438 -7.34375 16.886719 -5.441406 C 14.871094 -3.542969 12.414062 -2.609375 9.503906 -2.609375 L 5.40625 -2.609375 L 5.40625 -22.738281 L 9.503906 -22.738281 C 12.414062 -22.738281 14.871094 -21.769531 16.886719 -19.90625 C 18.898438 -17.964844 19.941406 -15.542969 19.941406 -12.671875 Z M 19.941406 -12.671875 "/></g></g></g><g fill="#e7e9ec" fill-opacity="1"><g transform="translate(166.724188, 244.916278)"><g><path d="M 1.703125 -5.578125 L 1.671875 -3.40625 L 2.734375 -3.390625 L 3.75 -3.40625 L 3.796875 -3.328125 L 3.734375 -2.734375 L 2.65625 -2.765625 L 1.671875 -2.765625 L 1.65625 -1.953125 L 1.703125 0 L 0.90625 0 L 0.953125 -1.875 L 0.90625 -6.25 L 4.234375 -6.25 L 4.296875 -6.171875 L 4.21875 -5.546875 L 2.78125 -5.59375 Z M 1.703125 -5.578125 "/></g></g></g><g fill="#e7e9ec" fill-opacity="1"><g transform="translate(178.75003, 244.916278)"><g><path d="M 4.46875 -0.609375 L 4.421875 0 L 0.90625 0 L 0.953125 -1.875 L 0.90625 -6.25 L 4.421875 -6.25 L 4.46875 -6.171875 L 4.40625 -5.5625 L 2.9375 -5.59375 L 1.703125 -5.578125 L 1.671875 -3.53125 L 2.84375 -3.515625 L 3.875 -3.546875 L 3.9375 -3.46875 L 3.875 -2.859375 L 2.78125 -2.890625 L 1.671875 -2.875 L 1.65625 -1.953125 L 1.6875 -0.65625 L 2.921875 -0.640625 L 4.421875 -0.6875 Z M 4.46875 -0.609375 "/></g></g></g><g fill="#e7e9ec" fill-opacity="1"><g transform="translate(191.243307, 244.916278)"><g><path d="M 2.609375 -6.296875 C 3.054688 -6.296875 3.519531 -6.195312 4 -6 L 3.875 -5.25 L 3.734375 -5.21875 C 3.546875 -5.363281 3.34375 -5.472656 3.125 -5.546875 C 2.914062 -5.628906 2.707031 -5.671875 2.5 -5.671875 C 2.257812 -5.671875 2.050781 -5.617188 1.875 -5.515625 C 1.695312 -5.421875 1.5625 -5.296875 1.46875 -5.140625 C 1.375 -4.984375 1.328125 -4.820312 1.328125 -4.65625 C 1.328125 -4.476562 1.378906 -4.320312 1.484375 -4.1875 C 1.585938 -4.050781 1.722656 -3.929688 1.890625 -3.828125 C 2.054688 -3.734375 2.273438 -3.617188 2.546875 -3.484375 C 2.898438 -3.328125 3.179688 -3.175781 3.390625 -3.03125 C 3.609375 -2.894531 3.796875 -2.71875 3.953125 -2.5 C 4.109375 -2.289062 4.1875 -2.03125 4.1875 -1.71875 C 4.1875 -1.394531 4.097656 -1.097656 3.921875 -0.828125 C 3.742188 -0.554688 3.492188 -0.335938 3.171875 -0.171875 C 2.859375 -0.015625 2.5 0.0625 2.09375 0.0625 C 1.8125 0.0625 1.523438 0.0234375 1.234375 -0.046875 C 0.941406 -0.117188 0.664062 -0.226562 0.40625 -0.375 L 0.5 -1.171875 L 0.609375 -1.21875 C 0.835938 -1 1.085938 -0.832031 1.359375 -0.71875 C 1.640625 -0.613281 1.910156 -0.5625 2.171875 -0.5625 C 2.410156 -0.5625 2.625 -0.609375 2.8125 -0.703125 C 3.007812 -0.804688 3.15625 -0.9375 3.25 -1.09375 C 3.351562 -1.257812 3.40625 -1.4375 3.40625 -1.625 C 3.40625 -1.894531 3.300781 -2.113281 3.09375 -2.28125 C 2.882812 -2.445312 2.570312 -2.625 2.15625 -2.8125 C 1.8125 -2.988281 1.535156 -3.140625 1.328125 -3.265625 C 1.117188 -3.398438 0.9375 -3.570312 0.78125 -3.78125 C 0.632812 -4 0.5625 -4.257812 0.5625 -4.5625 C 0.5625 -4.882812 0.644531 -5.175781 0.8125 -5.4375 C 0.988281 -5.707031 1.234375 -5.914062 1.546875 -6.0625 C 1.859375 -6.21875 2.210938 -6.296875 2.609375 -6.296875 Z M 2.609375 -6.296875 "/></g></g></g><g fill="#e7e9ec" fill-opacity="1"><g transform="translate(203.639206, 244.916278)"><g><path d="M 4.578125 -6.171875 L 4.515625 -5.5625 L 3.421875 -5.625 L 2.78125 -5.625 L 2.765625 -1.953125 L 2.78125 0 L 2 0 L 2.0625 -1.875 L 2.015625 -5.625 L 1.375 -5.625 L 0.265625 -5.5625 L 0.21875 -5.640625 L 0.265625 -6.25 L 4.515625 -6.25 Z M 4.578125 -6.171875 "/></g></g></g></svg>