<svg xmlns="http://www.w3.org/2000/svg" xmlns:xlink="http://www.w3.org/1999/xlink" width="3440" zoomAndPan="magnify" viewBox="0 0 2580 1079.999946" height="1440" preserveAspectRatio="xMidYMid meet" version="1.0"><defs><g/><clipPath id="id1"><path d="M 21 108 L 2560 108 L 2560 916.542969 L 21 916.542969 Z M 21 108 " clip-rule="nonzero"/></clipPath><clipPath id="id2"><path d="M 2242.445312 234.335938 C 2257.054688 234.335938 2269.714844 246.96875 2269.714844 261.546875 C 2269.714844 276.121094 2257.054688 288.753906 2242.445312 288.753906 C 2227.835938 288.753906 2215.175781 276.121094 2215.175781 261.546875 C 2215.175781 246.96875 2227.835938 234.335938 2242.445312 234.335938 Z M 2406.066406 477.285156 C 2406.066406 520.046875 2440.152344 554.058594 2483.003906 554.058594 C 2525.855469 554.058594 2559.945312 520.046875 2559.945312 477.285156 C 2559.945312 434.527344 2525.855469 400.511719 2483.003906 400.511719 C 2440.152344 400.511719 2406.066406 434.527344 2406.066406 477.285156 Z M 175.785156 548.226562 C 175.785156 505.46875 141.695312 471.457031 98.84375 471.457031 C 55.992188 471.457031 21.90625 506.441406 21.90625 548.226562 C 21.90625 590.988281 55.992188 625 98.84375 625 C 141.695312 625 175.785156 590.988281 175.785156 548.226562 Z M 711.441406 142.011719 C 711.441406 160.476562 727.023438 176.027344 745.527344 176.027344 L 534.1875 176.027344 C 484.515625 176.027344 443.613281 216.84375 443.613281 266.402344 C 443.613281 315.964844 484.515625 356.78125 534.1875 356.78125 L 307.265625 356.78125 C 292.65625 356.78125 279.992188 369.414062 279.992188 383.992188 C 279.992188 398.570312 292.65625 411.203125 307.265625 411.203125 L 599.441406 411.203125 C 576.066406 411.203125 556.585938 430.640625 556.585938 453.960938 C 556.585938 477.285156 576.066406 496.722656 599.441406 496.722656 L 286.8125 496.722656 C 250.777344 496.722656 221.558594 525.875 221.558594 561.832031 C 221.558594 597.789062 250.777344 626.945312 286.8125 626.945312 L 515.683594 626.945312 C 485.492188 626.945312 461.144531 651.238281 461.144531 681.363281 C 461.144531 711.492188 485.492188 735.785156 515.683594 735.785156 L 862.398438 735.785156 C 843.894531 735.785156 828.3125 751.335938 828.3125 769.800781 C 828.3125 788.261719 843.894531 803.8125 862.398438 803.8125 L 613.074219 803.8125 C 581.910156 803.8125 556.585938 829.078125 556.585938 860.175781 C 556.585938 891.273438 581.910156 916.542969 613.074219 916.542969 L 1835.347656 916.542969 C 1853.851562 916.542969 1869.433594 900.992188 1869.433594 882.527344 C 1869.433594 864.0625 1853.851562 848.515625 1835.347656 848.515625 L 2047.660156 848.515625 C 2097.332031 848.515625 2138.238281 807.699219 2138.238281 758.136719 C 2138.238281 708.574219 2097.332031 667.761719 2047.660156 667.761719 L 2274.585938 667.761719 C 2289.195312 667.761719 2301.855469 655.125 2301.855469 640.550781 C 2301.855469 625.972656 2289.195312 613.339844 2274.585938 613.339844 L 1982.410156 613.339844 C 2005.78125 613.339844 2025.261719 593.902344 2025.261719 570.578125 C 2025.261719 547.257812 2005.78125 527.820312 1982.410156 527.820312 L 2295.039062 527.820312 C 2331.074219 527.820312 2360.289062 498.664062 2360.289062 462.707031 C 2360.289062 426.753906 2331.074219 397.597656 2295.039062 397.597656 L 2066.167969 397.597656 C 2096.359375 397.597656 2120.707031 373.304688 2120.707031 343.175781 C 2120.707031 313.050781 2096.359375 288.753906 2066.167969 288.753906 L 1719.449219 288.753906 C 1737.953125 288.753906 1753.539062 273.207031 1753.539062 254.742188 C 1753.539062 236.277344 1737.953125 220.730469 1719.449219 220.730469 L 1968.773438 220.730469 C 1999.9375 220.730469 2025.261719 195.460938 2025.261719 164.363281 C 2025.261719 133.265625 1999.9375 108 1968.773438 108 L 746.503906 108 C 726.050781 108 711.441406 123.550781 711.441406 142.011719 Z M 366.671875 763.96875 C 366.671875 749.390625 354.011719 736.757812 339.402344 736.757812 C 324.792969 736.757812 312.132812 749.390625 312.132812 763.96875 C 312.132812 778.546875 324.792969 791.179688 339.402344 791.179688 C 354.011719 791.179688 366.671875 778.546875 366.671875 763.96875 Z M 366.671875 763.96875 " clip-rule="nonzero"/></clipPath><linearGradient x1="2582.190301" gradientTransform="matrix(0.000000000000000596, -9.718052, 9.739216, 0.000000000000000595, -4886.971891, 25640.898618)" y1="769.910807" x2="2551.029764" gradientUnits="userSpaceOnUse" y2="503.230211" id="id3"><stop stop-opacity="1" stop-color="rgb(8.599854%, 25.498962%, 48.199463%)" offset="0"/><stop stop-opacity="1" stop-color="rgb(8.599854%, 25.498962%, 48.199463%)" offset="0.035963"/><stop stop-opacity="1" stop-color="rgb(8.599854%, 25.498962%, 48.199463%)" offset="0.25"/><stop stop-opacity="1" stop-color="rgb(9.033203%, 25.376892%, 48.257446%)" offset="0.253906"/><stop stop-opacity="1" stop-color="rgb(9.468079%, 25.256348%, 48.31543%)" offset="0.257812"/><stop stop-opacity="1" stop-color="rgb(10.246277%, 25.039673%, 48.419189%)" offset="0.261719"/><stop stop-opacity="1" stop-color="rgb(11.024475%, 24.822998%, 48.522949%)" offset="0.265625"/><stop stop-opacity="1" stop-color="rgb(11.802673%, 24.604797%, 48.626709%)" offset="0.269531"/><stop stop-opacity="1" stop-color="rgb(12.582397%, 24.388123%, 48.730469%)" offset="0.273437"/><stop stop-opacity="1" stop-color="rgb(13.360596%, 24.169922%, 48.834229%)" offset="0.277344"/><stop stop-opacity="1" stop-color="rgb(14.138794%, 23.953247%, 48.937988%)" offset="0.28125"/><stop stop-opacity="1" stop-color="rgb(14.916992%, 23.736572%, 49.041748%)" offset="0.285156"/><stop stop-opacity="1" stop-color="rgb(15.69519%, 23.519897%, 49.147034%)" offset="0.289062"/><stop stop-opacity="1" stop-color="rgb(16.473389%, 23.301697%, 49.250793%)" offset="0.292969"/><stop stop-opacity="1" stop-color="rgb(17.251587%, 23.085022%, 49.354553%)" offset="0.296875"/><stop stop-opacity="1" stop-color="rgb(18.029785%, 22.866821%, 49.458313%)" offset="0.300781"/><stop stop-opacity="1" stop-color="rgb(18.809509%, 22.650146%, 49.562073%)" offset="0.304688"/><stop stop-opacity="1" stop-color="rgb(19.587708%, 22.433472%, 49.665833%)" offset="0.308594"/><stop stop-opacity="1" stop-color="rgb(20.365906%, 22.216797%, 49.769592%)" offset="0.3125"/><stop stop-opacity="1" stop-color="rgb(21.144104%, 21.998596%, 49.873352%)" offset="0.316406"/><stop stop-opacity="1" stop-color="rgb(21.922302%, 21.781921%, 49.977112%)" offset="0.320312"/><stop stop-opacity="1" stop-color="rgb(22.7005%, 21.565247%, 50.080872%)" offset="0.324219"/><stop stop-opacity="1" stop-color="rgb(23.478699%, 21.348572%, 50.186157%)" offset="0.328125"/><stop stop-opacity="1" stop-color="rgb(24.256897%, 21.130371%, 50.289917%)" offset="0.332031"/><stop stop-opacity="1" stop-color="rgb(25.036621%, 20.913696%, 50.393677%)" offset="0.335938"/><stop stop-opacity="1" stop-color="rgb(25.814819%, 20.695496%, 50.497437%)" offset="0.339844"/><stop stop-opacity="1" stop-color="rgb(26.593018%, 20.478821%, 50.601196%)" offset="0.34375"/><stop stop-opacity="1" stop-color="rgb(27.371216%, 20.262146%, 50.704956%)" offset="0.347656"/><stop stop-opacity="1" stop-color="rgb(28.149414%, 20.045471%, 50.808716%)" offset="0.351562"/><stop stop-opacity="1" stop-color="rgb(28.927612%, 19.827271%, 50.912476%)" offset="0.355469"/><stop stop-opacity="1" stop-color="rgb(29.705811%, 19.610596%, 51.016235%)" offset="0.359375"/><stop stop-opacity="1" stop-color="rgb(30.484009%, 19.392395%, 51.119995%)" offset="0.363281"/><stop stop-opacity="1" stop-color="rgb(31.263733%, 19.17572%, 51.223755%)" offset="0.367188"/><stop stop-opacity="1" stop-color="rgb(32.041931%, 18.959045%, 51.327515%)" offset="0.371094"/><stop stop-opacity="1" stop-color="rgb(32.820129%, 18.742371%, 51.4328%)" offset="0.375"/><stop stop-opacity="1" stop-color="rgb(33.598328%, 18.52417%, 51.53656%)" offset="0.378906"/><stop stop-opacity="1" stop-color="rgb(34.376526%, 18.307495%, 51.64032%)" offset="0.382812"/><stop stop-opacity="1" stop-color="rgb(35.154724%, 18.089294%, 51.74408%)" offset="0.386719"/><stop stop-opacity="1" stop-color="rgb(35.932922%, 17.87262%, 51.847839%)" offset="0.390625"/><stop stop-opacity="1" stop-color="rgb(36.711121%, 17.655945%, 51.951599%)" offset="0.394531"/><stop stop-opacity="1" stop-color="rgb(37.490845%, 17.43927%, 52.055359%)" offset="0.398438"/><stop stop-opacity="1" stop-color="rgb(38.269043%, 17.221069%, 52.159119%)" offset="0.402344"/><stop stop-opacity="1" stop-color="rgb(39.047241%, 17.004395%, 52.262878%)" offset="0.40625"/><stop stop-opacity="1" stop-color="rgb(39.825439%, 16.786194%, 52.366638%)" offset="0.410156"/><stop stop-opacity="1" stop-color="rgb(40.603638%, 16.569519%, 52.471924%)" offset="0.414063"/><stop stop-opacity="1" stop-color="rgb(41.381836%, 16.352844%, 52.575684%)" offset="0.417969"/><stop stop-opacity="1" stop-color="rgb(42.160034%, 16.136169%, 52.679443%)" offset="0.421875"/><stop stop-opacity="1" stop-color="rgb(42.938232%, 15.917969%, 52.783203%)" offset="0.425781"/><stop stop-opacity="1" stop-color="rgb(43.717957%, 15.701294%, 52.886963%)" offset="0.429688"/><stop stop-opacity="1" stop-color="rgb(44.496155%, 15.483093%, 52.990723%)" offset="0.433594"/><stop stop-opacity="1" stop-color="rgb(45.274353%, 15.266418%, 53.094482%)" offset="0.4375"/><stop stop-opacity="1" stop-color="rgb(46.052551%, 15.049744%, 53.198242%)" offset="0.441406"/><stop stop-opacity="1" stop-color="rgb(46.83075%, 14.833069%, 53.302002%)" offset="0.445313"/><stop stop-opacity="1" stop-color="rgb(47.608948%, 14.614868%, 53.405762%)" offset="0.449219"/><stop stop-opacity="1" stop-color="rgb(48.387146%, 14.398193%, 53.509521%)" offset="0.453125"/><stop stop-opacity="1" stop-color="rgb(49.165344%, 14.181519%, 53.613281%)" offset="0.457031"/><stop stop-opacity="1" stop-color="rgb(49.945068%, 13.964844%, 53.718567%)" offset="0.460938"/><stop stop-opacity="1" stop-color="rgb(50.723267%, 13.746643%, 53.822327%)" offset="0.464844"/><stop stop-opacity="1" stop-color="rgb(51.501465%, 13.529968%, 53.926086%)" offset="0.46875"/><stop stop-opacity="1" stop-color="rgb(52.279663%, 13.311768%, 54.029846%)" offset="0.472656"/><stop stop-opacity="1" stop-color="rgb(53.057861%, 13.095093%, 54.133606%)" offset="0.476563"/><stop stop-opacity="1" stop-color="rgb(53.83606%, 12.878418%, 54.237366%)" offset="0.480469"/><stop stop-opacity="1" stop-color="rgb(54.614258%, 12.661743%, 54.341125%)" offset="0.484375"/><stop stop-opacity="1" stop-color="rgb(55.392456%, 12.443542%, 54.444885%)" offset="0.488281"/><stop stop-opacity="1" stop-color="rgb(56.17218%, 12.226868%, 54.548645%)" offset="0.492188"/><stop stop-opacity="1" stop-color="rgb(56.950378%, 12.008667%, 54.652405%)" offset="0.496094"/><stop stop-opacity="1" stop-color="rgb(57.728577%, 11.791992%, 54.75769%)" offset="0.5"/><stop stop-opacity="1" stop-color="rgb(58.506775%, 11.575317%, 54.86145%)" offset="0.503906"/><stop stop-opacity="1" stop-color="rgb(59.284973%, 11.358643%, 54.96521%)" offset="0.507812"/><stop stop-opacity="1" stop-color="rgb(60.063171%, 11.140442%, 55.06897%)" offset="0.511719"/><stop stop-opacity="1" stop-color="rgb(60.842896%, 10.923767%, 55.172729%)" offset="0.515625"/><stop stop-opacity="1" stop-color="rgb(61.621094%, 10.705566%, 55.276489%)" offset="0.519531"/><stop stop-opacity="1" stop-color="rgb(62.399292%, 10.488892%, 55.380249%)" offset="0.523437"/><stop stop-opacity="1" stop-color="rgb(63.17749%, 10.272217%, 55.484009%)" offset="0.527344"/><stop stop-opacity="1" stop-color="rgb(63.955688%, 10.055542%, 55.587769%)" offset="0.53125"/><stop stop-opacity="1" stop-color="rgb(64.733887%, 9.837341%, 55.691528%)" offset="0.535156"/><stop stop-opacity="1" stop-color="rgb(65.512085%, 9.620667%, 55.795288%)" offset="0.539062"/><stop stop-opacity="1" stop-color="rgb(66.290283%, 9.402466%, 55.899048%)" offset="0.542969"/><stop stop-opacity="1" stop-color="rgb(67.070007%, 9.185791%, 56.004333%)" offset="0.546875"/><stop stop-opacity="1" stop-color="rgb(67.848206%, 8.969116%, 56.108093%)" offset="0.550781"/><stop stop-opacity="1" stop-color="rgb(68.626404%, 8.752441%, 56.211853%)" offset="0.554687"/><stop stop-opacity="1" stop-color="rgb(69.404602%, 8.534241%, 56.315613%)" offset="0.558594"/><stop stop-opacity="1" stop-color="rgb(70.1828%, 8.317566%, 56.419373%)" offset="0.5625"/><stop stop-opacity="1" stop-color="rgb(70.960999%, 8.100891%, 56.523132%)" offset="0.566406"/><stop stop-opacity="1" stop-color="rgb(71.739197%, 7.884216%, 56.626892%)" offset="0.570312"/><stop stop-opacity="1" stop-color="rgb(72.517395%, 7.666016%, 56.730652%)" offset="0.574219"/><stop stop-opacity="1" stop-color="rgb(73.297119%, 7.449341%, 56.834412%)" offset="0.578125"/><stop stop-opacity="1" stop-color="rgb(74.075317%, 7.23114%, 56.938171%)" offset="0.582031"/><stop stop-opacity="1" stop-color="rgb(74.853516%, 7.014465%, 57.043457%)" offset="0.585938"/><stop stop-opacity="1" stop-color="rgb(75.631714%, 6.797791%, 57.147217%)" offset="0.589844"/><stop stop-opacity="1" stop-color="rgb(76.409912%, 6.581116%, 57.250977%)" offset="0.59375"/><stop stop-opacity="1" stop-color="rgb(77.18811%, 6.362915%, 57.354736%)" offset="0.597656"/><stop stop-opacity="1" stop-color="rgb(77.966309%, 6.14624%, 57.458496%)" offset="0.601562"/><stop stop-opacity="1" stop-color="rgb(78.744507%, 5.92804%, 57.562256%)" offset="0.605469"/><stop stop-opacity="1" stop-color="rgb(79.524231%, 5.711365%, 57.666016%)" offset="0.609375"/><stop stop-opacity="1" stop-color="rgb(80.302429%, 5.49469%, 57.769775%)" offset="0.613281"/><stop stop-opacity="1" stop-color="rgb(81.080627%, 5.278015%, 57.873535%)" offset="0.617188"/><stop stop-opacity="1" stop-color="rgb(81.858826%, 5.059814%, 57.977295%)" offset="0.621094"/><stop stop-opacity="1" stop-color="rgb(82.637024%, 4.84314%, 58.081055%)" offset="0.625"/><stop stop-opacity="1" stop-color="rgb(83.415222%, 4.624939%, 58.184814%)" offset="0.628906"/><stop stop-opacity="1" stop-color="rgb(84.19342%, 4.408264%, 58.2901%)" offset="0.632812"/><stop stop-opacity="1" stop-color="rgb(84.971619%, 4.191589%, 58.39386%)" offset="0.636719"/><stop stop-opacity="1" stop-color="rgb(85.751343%, 3.974915%, 58.49762%)" offset="0.640625"/><stop stop-opacity="1" stop-color="rgb(86.529541%, 3.756714%, 58.601379%)" offset="0.644531"/><stop stop-opacity="1" stop-color="rgb(87.307739%, 3.540039%, 58.705139%)" offset="0.648438"/><stop stop-opacity="1" stop-color="rgb(88.085938%, 3.321838%, 58.808899%)" offset="0.652344"/><stop stop-opacity="1" stop-color="rgb(88.864136%, 3.105164%, 58.912659%)" offset="0.65625"/><stop stop-opacity="1" stop-color="rgb(89.642334%, 2.888489%, 59.016418%)" offset="0.660156"/><stop stop-opacity="1" stop-color="rgb(90.420532%, 2.671814%, 59.120178%)" offset="0.664062"/><stop stop-opacity="1" stop-color="rgb(91.19873%, 2.453613%, 59.223938%)" offset="0.667969"/><stop stop-opacity="1" stop-color="rgb(91.978455%, 2.236938%, 59.329224%)" offset="0.671875"/><stop stop-opacity="1" stop-color="rgb(92.756653%, 2.018738%, 59.432983%)" offset="0.675781"/><stop stop-opacity="1" stop-color="rgb(93.534851%, 1.802063%, 59.536743%)" offset="0.679688"/><stop stop-opacity="1" stop-color="rgb(94.313049%, 1.585388%, 59.640503%)" offset="0.683594"/><stop stop-opacity="1" stop-color="rgb(95.091248%, 1.368713%, 59.744263%)" offset="0.6875"/><stop stop-opacity="1" stop-color="rgb(95.869446%, 1.150513%, 59.848022%)" offset="0.691406"/><stop stop-opacity="1" stop-color="rgb(96.647644%, 0.933838%, 59.951782%)" offset="0.695312"/><stop stop-opacity="1" stop-color="rgb(97.425842%, 0.717163%, 60.055542%)" offset="0.699219"/><stop stop-opacity="1" stop-color="rgb(98.205566%, 0.500488%, 60.159302%)" offset="0.703125"/><stop stop-opacity="1" stop-color="rgb(98.983765%, 0.282288%, 60.263062%)" offset="0.707031"/><stop stop-opacity="1" stop-color="rgb(99.761963%, 0.0656128%, 60.366821%)" offset="0.710938"/><stop stop-opacity="1" stop-color="rgb(99.880981%, 0.0320435%, 60.38208%)" offset="0.71875"/><stop stop-opacity="1" stop-color="rgb(100%, 0%, 60.398865%)" offset="0.75"/><stop stop-opacity="1" stop-color="rgb(100%, 0%, 60.398865%)" offset="0.964037"/><stop stop-opacity="1" stop-color="rgb(100%, 0%, 60.398865%)" offset="1"/></linearGradient></defs><g clip-path="url(#id1)"><g clip-path="url(#id2)"><path fill="url(#id3)" d="M 21.90625 916.542969 L 2559.945312 916.542969 L 2559.945312 108 L 21.90625 108 Z M 21.90625 916.542969 " fill-rule="nonzero"/></g></g><g fill="#ffffff" fill-opacity="1"><g transform="translate(598.507597, 647.007408)"><g><path d="M 117.503906 -64.722656 L 117.503906 -261.980469 L 90.539062 -261.980469 L 90.539062 -64.722656 C 90.539062 -48.15625 83.988281 -36.601562 71.660156 -29.664062 C 61.257812 -23.5 48.542969 -21.574219 33.519531 -23.5 C 19.648438 -25.042969 8.859375 -28.894531 1.925781 -35.058594 L 1.925781 -5.394531 C 4.238281 -3.082031 8.859375 -1.15625 15.796875 0.769531 C 22.730469 2.695312 30.4375 3.851562 38.910156 3.851562 C 59.714844 4.625 77.054688 0.386719 90.921875 -9.246094 C 108.644531 -20.804688 117.503906 -39.296875 117.503906 -64.722656 Z M 117.503906 -64.722656 "/></g></g></g><g fill="#ffffff" fill-opacity="1"><g transform="translate(739.093551, 647.007408)"><g><path d="M 218.445312 -86.683594 L 218.445312 -261.980469 L 191.476562 -261.980469 L 191.476562 -82.832031 C 191.476562 -72.042969 189.550781 -63.183594 185.699219 -55.863281 C 174.523438 -34.289062 152.949219 -23.5 120.972656 -23.5 C 100.167969 -23.5 83.601562 -28.125 71.273438 -37.371094 C 57.019531 -47.773438 50.085938 -62.796875 50.085938 -82.832031 L 50.085938 -261.980469 L 23.117188 -261.980469 L 23.117188 -86.683594 C 23.117188 -58.175781 32.363281 -35.828125 50.855469 -19.648438 C 68.191406 -4.238281 91.691406 3.46875 120.972656 3.46875 C 149.867188 3.46875 172.984375 -4.238281 190.707031 -19.648438 C 209.199219 -35.828125 218.445312 -58.175781 218.445312 -86.683594 Z M 218.445312 -86.683594 "/></g></g></g><g fill="#ffffff" fill-opacity="1"><g transform="translate(980.593279, 647.007408)"><g><path d="M 287.40625 -122.515625 L 151.023438 -122.515625 L 151.023438 -99.011719 L 257.355469 -99.011719 C 249.265625 -76.28125 235.78125 -57.789062 216.519531 -44.304688 C 197.253906 -30.4375 175.679688 -23.886719 152.179688 -23.886719 C 122.128906 -23.886719 96.703125 -34.289062 75.511719 -55.476562 C 54.707031 -76.667969 44.304688 -102.480469 44.304688 -132.144531 C 44.304688 -161.8125 54.707031 -187.238281 75.898438 -208.429688 C 96.703125 -229.234375 122.128906 -240.019531 152.179688 -240.019531 C 174.523438 -240.019531 194.945312 -233.46875 213.050781 -220.757812 C 231.542969 -208.042969 244.644531 -191.476562 253.117188 -170.285156 L 281.628906 -170.285156 C 272.765625 -199.183594 256.199219 -222.296875 232.316406 -240.019531 C 208.429688 -257.742188 180.6875 -266.988281 149.484375 -266.988281 C 132.53125 -266.988281 115.964844 -263.136719 99.785156 -256.199219 C 83.21875 -249.265625 68.960938 -239.632812 56.632812 -227.304688 C 44.304688 -214.976562 34.675781 -200.722656 27.738281 -184.542969 C 20.804688 -167.976562 17.335938 -150.253906 17.335938 -131.761719 C 17.335938 -113.269531 20.804688 -95.546875 27.738281 -79.363281 C 34.675781 -62.796875 44.304688 -48.542969 56.632812 -36.214844 C 68.960938 -23.886719 83.21875 -14.253906 99.785156 -7.320312 C 115.964844 -0.386719 133.6875 3.082031 152.179688 3.082031 C 183.769531 3.082031 212.28125 -6.933594 237.707031 -27.355469 C 263.136719 -48.15625 278.933594 -74.355469 284.710938 -106.332031 Z M 287.40625 -122.515625 "/></g></g></g><g fill="#ffffff" fill-opacity="1"><g transform="translate(1285.260363, 647.007408)"><g><path d="M 184.542969 0 L 184.542969 -25.042969 L 55.863281 -25.042969 L 55.863281 -118.277344 L 180.6875 -118.277344 L 180.6875 -143.703125 L 55.863281 -143.703125 L 55.863281 -236.9375 L 184.542969 -236.9375 L 184.542969 -261.980469 L 28.894531 -261.980469 L 28.894531 0 Z M 184.542969 0 "/></g></g></g><g fill="#ffffff" fill-opacity="1"><g transform="translate(1498.642876, 647.007408)"><g><path d="M 55.863281 -193.019531 L 203.035156 16.179688 L 203.035156 -261.980469 L 176.066406 -261.980469 L 176.066406 -69.347656 L 28.894531 -278.546875 L 28.894531 0 L 55.863281 0 Z M 55.863281 -193.019531 "/></g></g></g><g fill="#ffffff" fill-opacity="1"><g transform="translate(1730.513402, 647.007408)"><g><path d="M 232.316406 -130.988281 C 232.316406 -149.867188 228.460938 -167.203125 221.527344 -183.386719 C 214.59375 -199.566406 204.960938 -213.4375 193.019531 -224.996094 C 180.6875 -236.550781 166.433594 -245.414062 150.253906 -251.964844 C 133.6875 -258.511719 115.964844 -261.980469 97.472656 -261.980469 L 28.894531 -261.980469 L 28.894531 0 L 97.472656 0 C 115.964844 0 133.6875 -3.082031 150.253906 -9.632812 C 166.433594 -16.179688 180.6875 -25.425781 193.019531 -36.984375 C 204.960938 -48.542969 214.59375 -62.027344 221.527344 -78.207031 C 228.460938 -94.390625 232.316406 -111.726562 232.316406 -130.988281 Z M 206.117188 -130.988281 C 206.117188 -100.9375 195.328125 -75.898438 174.523438 -56.25 C 153.71875 -36.601562 128.292969 -26.96875 98.242188 -26.96875 L 55.863281 -26.96875 L 55.863281 -235.011719 L 98.242188 -235.011719 C 128.292969 -235.011719 153.71875 -224.996094 174.523438 -205.730469 C 195.328125 -185.699219 206.117188 -160.65625 206.117188 -130.988281 Z M 206.117188 -130.988281 "/></g></g></g><g fill="#e7e9ec" fill-opacity="1"><g transform="translate(1075.266559, 869.560839)"><g><path d="M 17.515625 -57.609375 L 17.328125 -35.140625 L 28.203125 -34.9375 L 38.671875 -35.25 L 39.28125 -34.4375 L 38.5625 -28.296875 L 27.390625 -28.59375 L 17.21875 -28.5 L 17.125 -20.140625 L 17.515625 0 L 9.359375 0 L 9.875 -19.4375 L 9.359375 -64.546875 L 43.703125 -64.546875 L 44.3125 -63.75 L 43.609375 -57.296875 L 28.796875 -57.796875 Z M 17.515625 -57.609375 "/></g></g></g><g fill="#e7e9ec" fill-opacity="1"><g transform="translate(1199.562581, 869.560839)"><g><path d="M 46.21875 -6.25 L 45.625 0 L 9.359375 0 L 9.875 -19.4375 L 9.359375 -64.546875 L 45.71875 -64.546875 L 46.125 -63.75 L 45.515625 -57.5 L 30.3125 -57.796875 L 17.515625 -57.609375 L 17.328125 -36.453125 L 29.40625 -36.25 L 40.078125 -36.5625 L 40.6875 -35.84375 L 39.984375 -29.609375 L 28.703125 -29.8125 L 17.21875 -29.703125 L 17.125 -20.140625 L 17.421875 -6.75 L 30.21875 -6.640625 L 45.71875 -7.046875 Z M 46.21875 -6.25 "/></g></g></g><g fill="#e7e9ec" fill-opacity="1"><g transform="translate(1328.68988, 869.560839)"><g><path d="M 26.890625 -65.046875 C 31.523438 -65.046875 36.320312 -64.039062 41.28125 -62.03125 L 39.984375 -54.28125 L 38.5625 -53.875 C 36.625 -55.351562 34.5625 -56.492188 32.375 -57.296875 C 30.195312 -58.109375 28.03125 -58.515625 25.875 -58.515625 C 23.394531 -58.515625 21.226562 -58.007812 19.375 -57 C 17.53125 -55.988281 16.125 -54.675781 15.15625 -53.0625 C 14.1875 -51.457031 13.703125 -49.78125 13.703125 -48.03125 C 13.703125 -46.21875 14.253906 -44.625 15.359375 -43.25 C 16.460938 -41.875 17.851562 -40.679688 19.53125 -39.671875 C 21.207031 -38.671875 23.492188 -37.460938 26.390625 -36.046875 C 30.015625 -34.367188 32.929688 -32.804688 35.140625 -31.359375 C 37.359375 -29.921875 39.253906 -28.09375 40.828125 -25.875 C 42.410156 -23.664062 43.203125 -20.984375 43.203125 -17.828125 C 43.203125 -14.472656 42.296875 -11.382812 40.484375 -8.5625 C 38.671875 -5.738281 36.117188 -3.488281 32.828125 -1.8125 C 29.535156 -0.132812 25.773438 0.703125 21.546875 0.703125 C 18.734375 0.703125 15.796875 0.316406 12.734375 -0.453125 C 9.679688 -1.222656 6.847656 -2.347656 4.234375 -3.828125 L 5.234375 -12.078125 L 6.34375 -12.59375 C 8.695312 -10.300781 11.296875 -8.601562 14.140625 -7.5 C 16.992188 -6.394531 19.734375 -5.84375 22.359375 -5.84375 C 24.910156 -5.84375 27.175781 -6.34375 29.15625 -7.34375 C 31.132812 -8.351562 32.644531 -9.695312 33.6875 -11.375 C 34.726562 -13.050781 35.25 -14.832031 35.25 -16.71875 C 35.25 -19.539062 34.171875 -21.804688 32.015625 -23.515625 C 29.867188 -25.222656 26.613281 -27.085938 22.25 -29.109375 C 18.695312 -30.847656 15.84375 -32.40625 13.6875 -33.78125 C 11.539062 -35.15625 9.695312 -36.929688 8.15625 -39.109375 C 6.613281 -41.296875 5.84375 -43.96875 5.84375 -47.125 C 5.84375 -50.414062 6.726562 -53.4375 8.5 -56.1875 C 10.28125 -58.945312 12.765625 -61.113281 15.953125 -62.6875 C 19.148438 -64.257812 22.796875 -65.046875 26.890625 -65.046875 Z M 26.890625 -65.046875 "/></g></g></g><g fill="#e7e9ec" fill-opacity="1"><g transform="translate(1456.810707, 869.560839)"><g><path d="M 47.234375 -63.75 L 46.625 -57.5 L 35.34375 -58.109375 L 28.796875 -58.109375 L 28.5 -20.140625 L 28.796875 0 L 20.640625 0 L 21.25 -19.4375 L 20.75 -58.109375 L 14.203125 -58.109375 L 2.71875 -57.5 L 2.21875 -58.3125 L 2.8125 -64.546875 L 46.625 -64.546875 Z M 47.234375 -63.75 "/></g></g></g></svg>